<?xml version="1.0" encoding="UTF-8" standalone="no"?>
<svg
   xmlns:ns="http://opensource.org/licenses/MIT"
   xmlns:dc="http://purl.org/dc/elements/1.1/"
   xmlns:cc="http://creativecommons.org/ns#"
   xmlns:rdf="http://www.w3.org/1999/02/22-rdf-syntax-ns#"
   xmlns:svg="http://www.w3.org/2000/svg"
   xmlns="http://www.w3.org/2000/svg"
   xmlns:sodipodi="http://sodipodi.sourceforge.net/DTD/sodipodi-0.dtd"
   xmlns:inkscape="http://www.inkscape.org/namespaces/inkscape"
   version="1.1"
   id="Ebene_3"
   x="0px"
   y="0px"
   width="778.53003"
   height="442.48001"
   viewBox="0 0 778.52994 442.48"
   enable-background="new 0 0 841.89 595.28"
   xml:space="preserve"
   inkscape:version="0.48.3.1 r9886"
   sodipodi:docname="openslides-mark-transparent.svg"
   inkscape:export-xdpi="20.83"
   inkscape:export-ydpi="20.83"><metadata
   id="metadata461"><rdf:RDF><ns:Work
       rdf:about=""><dc:format>image/svg+xml</dc:format><dc:type
         rdf:resource="http://purl.org/dc/dcmitype/StillImage" /><dc:title /><dc:creator><ns:Agent><dc:title>OpenSlides Team</dc:title></ns:Agent></dc:creator></ns:Work><cc:Work
       rdf:about=""><dc:format>image/svg+xml</dc:format><dc:type
         rdf:resource="http://purl.org/dc/dcmitype/StillImage" /><dc:title></dc:title></cc:Work></rdf:RDF></metadata><defs
   id="defs459">
	
	
<filter
   id="filter5361"
   inkscape:label="Drop Shadow"
   color-interpolation-filters="sRGB"><feFlood
     id="feFlood5363"
     flood-opacity="0.8"
     flood-color="rgb(0,0,0)"
     result="flood" /><feComposite
     id="feComposite5365"
     in2="SourceGraphic"
     in="flood"
     operator="in"
     result="composite1" /><feGaussianBlur
     id="feGaussianBlur5367"
     stdDeviation="15"
     result="blur" /><feOffset
     id="feOffset5369"
     dx="0"
     dy="4"
     result="offset" /><feComposite
     id="feComposite5371"
     in2="offset"
     in="SourceGraphic"
     operator="over"
     result="composite2" /></filter></defs><sodipodi:namedview
   pagecolor="#ffffff"
   bordercolor="#666666"
   borderopacity="1"
   objecttolerance="10"
   gridtolerance="10"
   guidetolerance="10"
   inkscape:pageopacity="0"
   inkscape:pageshadow="2"
   inkscape:window-width="1052"
   inkscape:window-height="838"
   id="namedview457"
   showgrid="false"
   showguides="false"
   inkscape:guide-bbox="true"
   inkscape:zoom="0.25264438"
   inkscape:cx="-635.64761"
   inkscape:cy="138.12794"
   inkscape:window-x="12"
   inkscape:window-y="0"
   inkscape:window-maximized="0"
   inkscape:current-layer="Ebene_3"
   fit-margin-top="0"
   fit-margin-left="0"
   fit-margin-right="0"
   fit-margin-bottom="0"
   units="px"><sodipodi:guide
     orientation="0,1"
     position="-44.319014,-296.20428"
     id="guide3558" /><sodipodi:guide
     orientation="0,1"
     position="-75.964446,-240.25969"
     id="guide3560" /></sodipodi:namedview>

<g
   id="g29"
   transform="matrix(7.8699075,0,0,7.8699075,-1482.6921,-919.08484)"
   style="fill:#ffffff"
   inkscape:export-xdpi="300"
   inkscape:export-ydpi="300">
		<path
   style="fill:#ffffff"
   inkscape:connector-curvature="0"
   id="path31"
   d="m 231.138,168.561 h 15.136 c 1.645,0 2.965,0.99 2.965,2.225 0,1.231 -1.32,2.223 -2.965,2.223 h -15.136 c -1.646,0 -2.969,-0.992 -2.969,-2.223 0,-1.235 1.322,-2.225 2.969,-2.225 z" />
		<g
   id="g33"
   style="fill:#ffffff">
			<path
   style="fill:#ffffff"
   inkscape:connector-curvature="0"
   id="path35"
   d="m 224.244,127.652 c 1.516,0.284 2.521,1.745 2.243,3.26 -0.284,1.519 -1.747,2.523 -3.258,2.239 -1.522,-0.277 -2.526,-1.736 -2.241,-3.258 0.278,-1.519 1.739,-2.519 3.256,-2.241 z" />
			<path
   style="fill:#ffffff"
   inkscape:connector-curvature="0"
   id="path37"
   d="m 248.342,127.971 c -0.113,-1.547 -1.455,-2.703 -2.995,-2.586 -1.539,0.114 -2.695,1.456 -2.584,2.996 0.112,1.54 1.455,2.697 2.995,2.576 1.539,-0.111 2.696,-1.453 2.584,-2.986 z" />
			<path
   style="fill:#ffffff"
   inkscape:connector-curvature="0"
   id="path39"
   d="m 254.698,130.199 c -0.111,-1.541 -1.447,-2.698 -2.986,-2.584 -1.54,0.119 -2.696,1.454 -2.586,3 0.115,1.532 1.456,2.69 2.996,2.576 1.54,-0.111 2.698,-1.453 2.576,-2.992 z" />
			<path
   style="fill:#ffffff"
   inkscape:connector-curvature="0"
   id="path41"
   d="m 228.791,118.638 c -1.282,-0.857 -3.021,-0.527 -3.888,0.749 -0.857,1.282 -0.528,3.014 0.748,3.887 1.282,0.864 3.021,0.526 3.886,-0.749 0.866,-1.282 0.528,-3.019 -0.746,-3.887 z" />
			<path
   style="fill:#ffffff"
   inkscape:connector-curvature="0"
   id="path43"
   d="m 244.284,119.378 c -0.113,-1.548 -1.454,-2.703 -2.994,-2.585 -1.535,0.114 -2.698,1.456 -2.579,2.995 0.113,1.54 1.454,2.695 2.987,2.577 1.547,-0.111 2.698,-1.453 2.586,-2.987 z" />
			<path
   style="opacity:0.9387;fill:#ffffff"
   inkscape:connector-curvature="0"
   id="path45"
   d="m 244.284,119.378 c -0.113,-1.548 -1.454,-2.703 -2.994,-2.585 -1.535,0.114 -2.698,1.456 -2.579,2.995 0.113,1.54 1.454,2.695 2.987,2.577 1.547,-0.111 2.698,-1.453 2.586,-2.987 z" />
			<path
   style="fill:#ffffff"
   inkscape:connector-curvature="0"
   id="path47"
   d="m 251.567,120.753 c -0.111,-1.54 -1.447,-2.699 -2.995,-2.584 -1.54,0.119 -2.69,1.454 -2.576,2.999 0.112,1.533 1.453,2.691 2.993,2.58 1.54,-0.115 2.69,-1.456 2.578,-2.995 z" />
			<path
   style="opacity:0.9387;fill:#ffffff"
   inkscape:connector-curvature="0"
   id="path49"
   d="m 251.567,120.753 c -0.111,-1.54 -1.447,-2.699 -2.995,-2.584 -1.54,0.119 -2.69,1.452 -2.576,2.999 0.112,1.533 1.453,2.691 2.993,2.58 1.54,-0.115 2.69,-1.456 2.578,-2.995 z" />
			<path
   style="fill:#ffffff"
   inkscape:connector-curvature="0"
   id="path51"
   d="m 255.645,120.877 c 1.521,0.284 2.518,1.74 2.242,3.26 -0.285,1.519 -1.739,2.517 -3.26,2.239 -1.521,-0.284 -2.519,-1.737 -2.24,-3.259 0.284,-1.518 1.745,-2.517 3.258,-2.24 z" />
			<path
   style="fill:#ffffff"
   inkscape:connector-curvature="0"
   id="path53"
   d="m 240.216,140.03 c -1.276,-0.865 -3.016,-0.537 -3.88,0.746 -0.866,1.277 -0.538,3.014 0.746,3.88 1.282,0.867 3.013,0.53 3.88,-0.746 0.866,-1.276 0.529,-3.016 -0.746,-3.88 z" />
			<path
   style="fill:#ffffff"
   inkscape:connector-curvature="0"
   id="path55"
   d="m 248.446,143.145 c -0.111,-1.54 -1.452,-2.694 -2.992,-2.583 -1.541,0.117 -2.698,1.459 -2.584,2.994 0.112,1.54 1.453,2.695 2.993,2.584 1.54,-0.112 2.696,-1.453 2.583,-2.995 z" />
			<path
   style="opacity:0.9387;fill:#ffffff"
   inkscape:connector-curvature="0"
   id="path57"
   d="m 248.446,143.145 c -0.111,-1.54 -1.452,-2.694 -2.992,-2.584 -1.541,0.119 -2.698,1.461 -2.584,2.996 0.112,1.54 1.453,2.695 2.993,2.584 1.54,-0.113 2.696,-1.454 2.583,-2.996 z" />
			<path
   style="fill:#ffffff"
   inkscape:connector-curvature="0"
   id="path59"
   d="m 229.154,134.489 c -1.275,-0.864 -3.018,-0.527 -3.88,0.749 -0.867,1.283 -0.529,3.014 0.745,3.88 1.282,0.871 3.012,0.534 3.881,-0.742 0.868,-1.283 0.534,-3.021 -0.746,-3.887 z" />
			<path
   style="fill:#ffffff"
   inkscape:connector-curvature="0"
   id="path61"
   d="m 236.296,132.867 c -1.277,-0.864 -3.014,-0.533 -3.881,0.749 -0.866,1.275 -0.527,3.015 0.748,3.88 1.279,0.864 3.021,0.527 3.885,-0.749 0.867,-1.276 0.529,-3.013 -0.752,-3.88 z" />
			<path
   style="fill:#ffffff"
   inkscape:connector-curvature="0"
   id="path63"
   d="m 251.567,136.602 c -0.111,-1.539 -1.447,-2.697 -2.995,-2.583 -1.533,0.117 -2.695,1.452 -2.576,2.992 0.112,1.542 1.453,2.697 2.993,2.586 1.54,-0.121 2.698,-1.456 2.578,-2.995 z" />
			<path
   style="opacity:0.9387;fill:#ffffff"
   inkscape:connector-curvature="0"
   id="path65"
   d="m 251.567,136.602 c -0.111,-1.541 -1.447,-2.697 -2.995,-2.583 -1.533,0.117 -2.695,1.452 -2.576,2.992 0.112,1.542 1.453,2.697 2.993,2.586 1.54,-0.121 2.698,-1.456 2.578,-2.995 z" />
			<path
   style="fill:#ffffff"
   inkscape:connector-curvature="0"
   id="path67"
   d="m 243.808,147.482 c -1.282,-0.868 -3.014,-0.531 -3.881,0.745 -0.864,1.282 -0.535,3.02 0.748,3.886 1.275,0.861 3.014,0.53 3.88,-0.746 0.865,-1.281 0.527,-3.012 -0.747,-3.885 z" />
			<path
   style="opacity:0.9387;fill:#ffffff"
   inkscape:connector-curvature="0"
   id="path69"
   d="m 243.808,147.482 c -1.282,-0.868 -3.014,-0.531 -3.881,0.745 -0.864,1.282 -0.535,3.02 0.748,3.886 1.275,0.861 3.014,0.53 3.88,-0.746 0.865,-1.281 0.527,-3.012 -0.747,-3.885 z" />
			<path
   style="fill:#ffffff"
   inkscape:connector-curvature="0"
   id="path71"
   d="m 236.887,147.482 c -1.274,-0.868 -3.014,-0.531 -3.879,0.745 -0.866,1.282 -0.535,3.02 0.746,3.886 1.275,0.861 3.014,0.53 3.881,-0.746 0.865,-1.281 0.528,-3.012 -0.748,-3.885 z" />
			<path
   style="opacity:0.9387;fill:#ffffff"
   inkscape:connector-curvature="0"
   id="path73"
   d="m 236.887,147.482 c -1.274,-0.868 -3.014,-0.531 -3.879,0.745 -0.866,1.282 -0.535,3.02 0.746,3.886 1.275,0.861 3.014,0.53 3.881,-0.746 0.865,-1.281 0.528,-3.012 -0.748,-3.885 z" />
			<path
   style="fill:#ffffff"
   inkscape:connector-curvature="0"
   id="path75"
   d="m 232.399,125.857 c -1.281,-0.867 -3.021,-0.529 -3.887,0.745 -0.866,1.283 -0.528,3.016 0.747,3.887 1.282,0.859 3.015,0.53 3.886,-0.745 0.861,-1.284 0.53,-3.02 -0.746,-3.887 z" />
			<path
   style="fill:#ffffff"
   inkscape:connector-curvature="0"
   id="path77"
   d="m 241.034,127.336 c -0.11,-1.54 -1.451,-2.696 -2.991,-2.579 -1.54,0.114 -2.698,1.456 -2.587,2.995 0.114,1.534 1.456,2.69 2.995,2.577 1.546,-0.111 2.7,-1.453 2.583,-2.993 z" />
			<path
   style="fill:#ffffff"
   inkscape:connector-curvature="0"
   id="path79"
   d="m 221.422,121.313 c -1.276,-0.866 -3.015,-0.537 -3.88,0.745 -0.867,1.278 -0.529,3.015 0.746,3.88 1.282,0.868 3.015,0.537 3.88,-0.738 0.866,-1.282 0.535,-3.027 -0.746,-3.887 z" />
			<path
   style="opacity:0.9387;fill:#ffffff"
   inkscape:connector-curvature="0"
   id="path81"
   d="m 244.284,119.378 c -0.113,-1.548 -1.454,-2.703 -2.994,-2.585 -1.535,0.114 -2.698,1.456 -2.579,2.995 0.113,1.54 1.454,2.695 2.987,2.577 1.547,-0.111 2.698,-1.453 2.586,-2.987 z" />
			<path
   style="fill:#ffffff"
   inkscape:connector-curvature="0"
   id="path83"
   d="m 237.039,119.377 c -0.112,-1.546 -1.454,-2.698 -2.993,-2.584 -1.533,0.112 -2.69,1.454 -2.579,2.992 0.112,1.541 1.455,2.692 2.996,2.58 1.539,-0.115 2.688,-1.456 2.576,-2.988 z" />
			<path
   style="opacity:0.9387;fill:#ffffff"
   inkscape:connector-curvature="0"
   id="path85"
   d="m 251.567,120.753 c -0.111,-1.54 -1.447,-2.699 -2.995,-2.584 -1.54,0.119 -2.69,1.452 -2.576,2.999 0.112,1.533 1.453,2.691 2.993,2.58 1.54,-0.115 2.69,-1.456 2.578,-2.995 z" />
			<path
   style="fill:#ffffff"
   inkscape:connector-curvature="0"
   id="path87"
   d="m 231.97,140.602 c 1.519,0.282 2.523,1.745 2.239,3.257 -0.278,1.521 -1.736,2.525 -3.259,2.242 -1.512,-0.279 -2.518,-1.74 -2.241,-3.258 0.285,-1.523 1.745,-2.52 3.261,-2.241 z" />
			<path
   style="opacity:0.9387;fill:#ffffff"
   inkscape:connector-curvature="0"
   id="path89"
   d="m 248.446,143.145 c -0.111,-1.54 -1.452,-2.694 -2.992,-2.584 -1.541,0.119 -2.698,1.461 -2.584,2.996 0.112,1.54 1.453,2.695 2.993,2.584 1.54,-0.113 2.696,-1.454 2.583,-2.996 z" />
			<path
   style="opacity:0.9387;fill:#ffffff"
   inkscape:connector-curvature="0"
   id="path91"
   d="m 251.567,136.602 c -0.111,-1.541 -1.447,-2.697 -2.995,-2.583 -1.533,0.117 -2.695,1.452 -2.576,2.992 0.112,1.542 1.453,2.697 2.993,2.586 1.54,-0.121 2.698,-1.456 2.578,-2.995 z" />
			<path
   style="fill:#ffffff"
   inkscape:connector-curvature="0"
   id="path93"
   d="m 244.838,134.975 c -0.115,-1.54 -1.456,-2.695 -2.996,-2.583 -1.534,0.117 -2.698,1.459 -2.577,2.999 0.11,1.542 1.445,2.69 2.992,2.579 1.539,-0.113 2.691,-1.455 2.581,-2.995 z" />
			<path
   style="opacity:0.9387;fill:#ffffff"
   inkscape:connector-curvature="0"
   id="path95"
   d="m 243.808,147.482 c -1.282,-0.868 -3.014,-0.531 -3.881,0.745 -0.864,1.282 -0.535,3.02 0.748,3.886 1.275,0.861 3.014,0.53 3.88,-0.746 0.865,-1.281 0.527,-3.012 -0.747,-3.885 z" />
			<path
   style="opacity:0.9387;fill:#ffffff"
   inkscape:connector-curvature="0"
   id="path97"
   d="m 236.887,147.482 c -1.274,-0.868 -3.014,-0.531 -3.879,0.745 -0.866,1.282 -0.535,3.02 0.746,3.886 1.275,0.861 3.014,0.53 3.881,-0.746 0.865,-1.281 0.528,-3.012 -0.748,-3.885 z" />
		</g>
		<g
   id="g99"
   style="fill:#ffffff">
			<path
   style="fill:#ffffff"
   inkscape:connector-curvature="0"
   id="path101"
   d="m 196.938,156.803 c 1.044,-1.134 2.815,-1.213 3.955,-0.173 1.137,1.043 1.212,2.816 0.169,3.949 -1.04,1.143 -2.81,1.22 -3.949,0.173 -1.141,-1.04 -1.215,-2.808 -0.175,-3.949 z" />
			<path
   style="fill:#ffffff"
   inkscape:connector-curvature="0"
   id="path103"
   d="m 209.977,136.537 c -1.369,-0.725 -3.061,-0.2 -3.779,1.17 -0.718,1.367 -0.192,3.057 1.173,3.777 1.364,0.72 3.057,0.196 3.771,-1.173 0.719,-1.365 0.197,-3.055 -1.165,-3.774 z" />
			<path
   style="fill:#ffffff"
   inkscape:connector-curvature="0"
   id="path105"
   d="m 215.234,132.327 c -1.364,-0.722 -3.053,-0.204 -3.774,1.163 -0.714,1.369 -0.194,3.057 1.176,3.782 1.359,0.716 3.051,0.192 3.772,-1.174 0.719,-1.366 0.196,-3.057 -1.174,-3.771 z" />
			<path
   style="fill:#ffffff"
   inkscape:connector-curvature="0"
   id="path107"
   d="m 191.702,148.171 c -1.404,0.633 -2.047,2.282 -1.425,3.693 0.634,1.408 2.277,2.045 3.691,1.426 1.414,-0.63 2.049,-2.284 1.426,-3.693 -0.629,-1.412 -2.278,-2.049 -3.692,-1.426 z" />
			<path
   style="fill:#ffffff"
   inkscape:connector-curvature="0"
   id="path109"
   d="m 200.54,135.425 c -1.371,-0.726 -3.062,-0.2 -3.778,1.167 -0.718,1.363 -0.194,3.059 1.173,3.774 1.368,0.72 3.056,0.197 3.769,-1.168 0.725,-1.369 0.196,-3.054 -1.164,-3.773 z" />
			<path
   style="opacity:0.9387;fill:#ffffff"
   inkscape:connector-curvature="0"
   id="path111"
   d="m 200.54,135.425 c -1.371,-0.726 -3.062,-0.2 -3.778,1.167 -0.718,1.363 -0.194,3.059 1.173,3.774 1.368,0.72 3.056,0.197 3.769,-1.168 0.725,-1.369 0.196,-3.054 -1.164,-3.773 z" />
			<path
   style="fill:#ffffff"
   inkscape:connector-curvature="0"
   id="path113"
   d="m 205.566,129.977 c -1.366,-0.72 -3.055,-0.201 -3.778,1.17 -0.716,1.368 -0.192,3.052 1.177,3.776 1.361,0.717 3.053,0.193 3.774,-1.171 0.719,-1.367 0.191,-3.055 -1.173,-3.775 z" />
			<path
   style="opacity:0.9387;fill:#ffffff"
   inkscape:connector-curvature="0"
   id="path115"
   d="m 205.566,129.977 c -1.366,-0.72 -3.055,-0.201 -3.778,1.17 -0.716,1.368 -0.195,3.052 1.177,3.776 1.361,0.717 3.053,0.193 3.774,-1.171 0.719,-1.367 0.191,-3.055 -1.173,-3.775 z" />
			<path
   style="fill:#ffffff"
   inkscape:connector-curvature="0"
   id="path117"
   d="m 207.832,126.584 c 1.046,-1.138 2.81,-1.214 3.952,-0.173 1.138,1.046 1.214,2.809 0.172,3.951 -1.048,1.138 -2.807,1.214 -3.95,0.174 -1.137,-1.047 -1.212,-2.815 -0.174,-3.952 z" />
			<path
   style="fill:#ffffff"
   inkscape:connector-curvature="0"
   id="path119"
   d="m 215.898,149.818 c -1.412,0.624 -2.056,2.274 -1.424,3.685 0.623,1.413 2.271,2.054 3.686,1.424 1.414,-0.628 2.045,-2.275 1.423,-3.686 -0.622,-1.409 -2.277,-2.045 -3.685,-1.423 z" />
			<path
   style="fill:#ffffff"
   inkscape:connector-curvature="0"
   id="path121"
   d="m 222.901,144.488 c -1.364,-0.723 -3.055,-0.195 -3.777,1.171 -0.717,1.368 -0.192,3.059 1.17,3.777 1.367,0.721 3.057,0.195 3.78,-1.17 0.719,-1.364 0.195,-3.056 -1.173,-3.778 z" />
			<path
   style="opacity:0.9387;fill:#ffffff"
   inkscape:connector-curvature="0"
   id="path123"
   d="m 222.901,144.488 c -1.364,-0.723 -3.055,-0.195 -3.778,1.169 -0.716,1.37 -0.191,3.061 1.171,3.779 1.367,0.721 3.057,0.195 3.78,-1.17 0.719,-1.364 0.195,-3.056 -1.173,-3.778 z" />
			<path
   style="fill:#ffffff"
   inkscape:connector-curvature="0"
   id="path125"
   d="m 205.336,156.264 c -1.407,0.623 -2.045,2.277 -1.421,3.686 0.629,1.414 2.278,2.045 3.687,1.423 1.419,-0.625 2.05,-2.271 1.428,-3.683 -0.63,-1.413 -2.279,-2.054 -3.694,-1.426 z" />
			<path
   style="fill:#ffffff"
   inkscape:connector-curvature="0"
   id="path127"
   d="m 207.746,149.348 c -1.409,0.624 -2.048,2.274 -1.422,3.687 0.622,1.411 2.278,2.045 3.688,1.422 1.411,-0.628 2.047,-2.283 1.422,-3.691 -0.621,-1.412 -2.273,-2.046 -3.688,-1.418 z" />
			<path
   style="fill:#ffffff"
   inkscape:connector-curvature="0"
   id="path129"
   d="m 219.005,138.374 c -1.363,-0.719 -3.054,-0.2 -3.776,1.171 -0.713,1.362 -0.197,3.057 1.173,3.771 1.366,0.722 3.057,0.197 3.779,-1.167 0.714,-1.371 0.194,-3.06 -1.176,-3.775 z" />
			<path
   style="opacity:0.9387;fill:#ffffff"
   inkscape:connector-curvature="0"
   id="path131"
   d="m 219.005,138.374 c -1.363,-0.719 -3.054,-0.2 -3.776,1.171 -0.713,1.362 -0.197,3.057 1.173,3.771 1.366,0.722 3.057,0.197 3.779,-1.167 0.714,-1.371 0.194,-3.06 -1.176,-3.775 z" />
			<path
   style="fill:#ffffff"
   inkscape:connector-curvature="0"
   id="path133"
   d="m 224.12,150.721 c -1.414,0.627 -2.045,2.275 -1.423,3.687 0.629,1.412 2.277,2.053 3.691,1.425 1.407,-0.625 2.047,-2.275 1.425,-3.686 -0.628,-1.413 -2.274,-2.046 -3.693,-1.426 z" />
			<path
   style="opacity:0.9387;fill:#ffffff"
   inkscape:connector-curvature="0"
   id="path135"
   d="m 224.12,150.721 c -1.414,0.627 -2.045,2.275 -1.423,3.687 0.629,1.412 2.277,2.053 3.691,1.425 1.407,-0.625 2.047,-2.275 1.425,-3.686 -0.628,-1.413 -2.274,-2.046 -3.693,-1.426 z" />
			<path
   style="fill:#ffffff"
   inkscape:connector-curvature="0"
   id="path137"
   d="m 220.454,156.59 c -1.412,0.622 -2.047,2.273 -1.424,3.684 0.628,1.414 2.278,2.054 3.691,1.427 1.405,-0.625 2.048,-2.276 1.423,-3.686 -0.627,-1.413 -2.274,-2.046 -3.69,-1.425 z" />
			<path
   style="opacity:0.9387;fill:#ffffff"
   inkscape:connector-curvature="0"
   id="path139"
   d="m 220.454,156.59 c -1.412,0.622 -2.047,2.273 -1.424,3.684 0.628,1.414 2.278,2.054 3.691,1.427 1.405,-0.625 2.048,-2.276 1.423,-3.686 -0.627,-1.413 -2.274,-2.046 -3.69,-1.425 z" />
			<path
   style="fill:#ffffff"
   inkscape:connector-curvature="0"
   id="path141"
   d="m 199.739,148.936 c -1.418,0.628 -2.052,2.282 -1.429,3.689 0.628,1.415 2.276,2.049 3.692,1.428 1.407,-0.633 2.045,-2.273 1.427,-3.691 -0.633,-1.408 -2.28,-2.049 -3.69,-1.426 z" />
			<path
   style="fill:#ffffff"
   inkscape:connector-curvature="0"
   id="path143"
   d="m 205.567,142.396 c -1.363,-0.721 -3.056,-0.197 -3.773,1.171 -0.718,1.366 -0.194,3.058 1.171,3.78 1.361,0.715 3.053,0.191 3.772,-1.175 0.725,-1.368 0.199,-3.055 -1.17,-3.776 z" />
			<path
   style="fill:#ffffff"
   inkscape:connector-curvature="0"
   id="path145"
   d="m 190.066,155.839 c -1.412,0.623 -2.052,2.271 -1.425,3.684 0.624,1.411 2.276,2.046 3.686,1.424 1.416,-0.63 2.054,-2.272 1.431,-3.683 -0.628,-1.412 -2.284,-2.057 -3.692,-1.425 z" />
			<path
   style="opacity:0.9387;fill:#ffffff"
   inkscape:connector-curvature="0"
   id="path147"
   d="m 200.54,135.425 c -1.371,-0.726 -3.062,-0.2 -3.778,1.167 -0.718,1.363 -0.194,3.059 1.173,3.774 1.368,0.72 3.056,0.197 3.769,-1.168 0.725,-1.369 0.196,-3.054 -1.164,-3.773 z" />
			<path
   style="fill:#ffffff"
   inkscape:connector-curvature="0"
   id="path149"
   d="m 196.699,141.568 c -1.37,-0.724 -3.058,-0.196 -3.778,1.169 -0.718,1.358 -0.192,3.052 1.173,3.771 1.366,0.722 3.054,0.194 3.775,-1.171 0.719,-1.368 0.192,-3.053 -1.17,-3.769 z" />
			<path
   style="opacity:0.9387;fill:#ffffff"
   inkscape:connector-curvature="0"
   id="path151"
   d="m 205.566,129.977 c -1.366,-0.72 -3.055,-0.201 -3.778,1.17 -0.716,1.368 -0.195,3.052 1.177,3.776 1.361,0.717 3.053,0.193 3.774,-1.171 0.719,-1.367 0.191,-3.055 -1.173,-3.775 z" />
			<path
   style="fill:#ffffff"
   inkscape:connector-curvature="0"
   id="path153"
   d="m 212.012,157.114 c 1.046,-1.138 2.819,-1.215 3.95,-0.173 1.144,1.041 1.219,2.812 0.175,3.951 -1.037,1.135 -2.808,1.213 -3.951,0.174 -1.141,-1.047 -1.211,-2.816 -0.174,-3.952 z" />
			<path
   style="opacity:0.9387;fill:#ffffff"
   inkscape:connector-curvature="0"
   id="path155"
   d="m 222.901,144.488 c -1.364,-0.723 -3.055,-0.195 -3.778,1.169 -0.716,1.37 -0.191,3.061 1.171,3.779 1.367,0.721 3.057,0.195 3.78,-1.17 0.719,-1.364 0.195,-3.056 -1.173,-3.778 z" />
			<path
   style="opacity:0.9387;fill:#ffffff"
   inkscape:connector-curvature="0"
   id="path157"
   d="m 219.005,138.374 c -1.363,-0.719 -3.054,-0.2 -3.776,1.171 -0.713,1.362 -0.197,3.057 1.173,3.771 1.366,0.722 3.057,0.197 3.779,-1.167 0.714,-1.371 0.194,-3.06 -1.176,-3.775 z" />
			<path
   style="fill:#ffffff"
   inkscape:connector-curvature="0"
   id="path159"
   d="m 214.061,143.221 c -1.367,-0.719 -3.056,-0.193 -3.776,1.171 -0.715,1.363 -0.193,3.061 1.176,3.774 1.368,0.722 3.049,0.2 3.774,-1.172 0.719,-1.364 0.192,-3.051 -1.174,-3.773 z" />
			<path
   style="opacity:0.9387;fill:#ffffff"
   inkscape:connector-curvature="0"
   id="path161"
   d="m 224.12,150.721 c -1.414,0.627 -2.045,2.275 -1.423,3.687 0.629,1.412 2.277,2.053 3.691,1.425 1.407,-0.625 2.047,-2.275 1.425,-3.686 -0.628,-1.413 -2.274,-2.046 -3.693,-1.426 z" />
			<path
   style="opacity:0.9387;fill:#ffffff"
   inkscape:connector-curvature="0"
   id="path163"
   d="m 220.454,156.59 c -1.412,0.622 -2.047,2.273 -1.424,3.684 0.628,1.414 2.278,2.054 3.691,1.427 1.405,-0.625 2.048,-2.276 1.423,-3.686 -0.627,-1.413 -2.274,-2.046 -3.69,-1.425 z" />
		</g>
		<g
   id="g165"
   style="fill:#ffffff">
			<path
   style="fill:#ffffff"
   inkscape:connector-curvature="0"
   id="path167"
   d="m 278.788,156.803 c -1.044,-1.134 -2.816,-1.213 -3.953,-0.173 -1.136,1.043 -1.213,2.816 -0.172,3.949 1.041,1.143 2.809,1.22 3.95,0.173 1.142,-1.04 1.217,-2.808 0.175,-3.949 z" />
			<path
   style="fill:#ffffff"
   inkscape:connector-curvature="0"
   id="path169"
   d="m 265.747,136.537 c 1.371,-0.725 3.063,-0.2 3.78,1.17 0.722,1.367 0.196,3.057 -1.171,3.777 -1.366,0.72 -3.058,0.196 -3.772,-1.173 -0.72,-1.365 -0.194,-3.055 1.163,-3.774 z" />
			<path
   style="fill:#ffffff"
   inkscape:connector-curvature="0"
   id="path171"
   d="m 260.49,132.327 c 1.366,-0.722 3.057,-0.204 3.774,1.163 0.716,1.369 0.198,3.057 -1.175,3.782 -1.358,0.716 -3.053,0.192 -3.77,-1.174 -0.722,-1.366 -0.197,-3.057 1.171,-3.771 z" />
			<path
   style="fill:#ffffff"
   inkscape:connector-curvature="0"
   id="path173"
   d="m 284.023,148.171 c 1.407,0.633 2.047,2.282 1.423,3.693 -0.631,1.408 -2.274,2.045 -3.69,1.426 -1.412,-0.63 -2.048,-2.284 -1.426,-3.693 0.629,-1.412 2.281,-2.049 3.693,-1.426 z" />
			<path
   style="fill:#ffffff"
   inkscape:connector-curvature="0"
   id="path175"
   d="m 275.186,135.425 c 1.371,-0.726 3.064,-0.2 3.779,1.167 0.717,1.363 0.194,3.059 -1.176,3.774 -1.363,0.72 -3.055,0.197 -3.767,-1.168 -0.724,-1.369 -0.196,-3.054 1.164,-3.773 z" />
			<path
   style="opacity:0.9387;fill:#ffffff"
   inkscape:connector-curvature="0"
   id="path177"
   d="m 275.186,135.425 c 1.371,-0.726 3.064,-0.2 3.779,1.167 0.717,1.363 0.194,3.059 -1.176,3.774 -1.363,0.72 -3.055,0.197 -3.767,-1.168 -0.724,-1.369 -0.196,-3.054 1.164,-3.773 z" />
			<path
   style="fill:#ffffff"
   inkscape:connector-curvature="0"
   id="path179"
   d="m 270.158,129.977 c 1.368,-0.72 3.058,-0.201 3.781,1.17 0.714,1.368 0.192,3.052 -1.179,3.776 -1.358,0.717 -3.055,0.193 -3.773,-1.171 -0.718,-1.367 -0.191,-3.055 1.171,-3.775 z" />
			<path
   style="opacity:0.9387;fill:#ffffff"
   inkscape:connector-curvature="0"
   id="path181"
   d="m 270.158,129.977 c 1.368,-0.72 3.058,-0.201 3.781,1.17 0.714,1.368 0.192,3.052 -1.179,3.776 -1.358,0.717 -3.055,0.193 -3.773,-1.171 -0.718,-1.367 -0.191,-3.055 1.171,-3.775 z" />
			<path
   style="fill:#ffffff"
   inkscape:connector-curvature="0"
   id="path183"
   d="m 267.894,126.584 c -1.046,-1.138 -2.811,-1.214 -3.952,-0.173 -1.137,1.046 -1.213,2.809 -0.171,3.951 1.045,1.138 2.808,1.214 3.95,0.174 1.135,-1.047 1.211,-2.815 0.173,-3.952 z" />
			<path
   style="fill:#ffffff"
   inkscape:connector-curvature="0"
   id="path185"
   d="m 259.827,149.818 c 1.411,0.624 2.055,2.274 1.426,3.685 -0.625,1.413 -2.271,2.054 -3.687,1.424 -1.416,-0.628 -2.047,-2.275 -1.425,-3.686 0.624,-1.409 2.279,-2.045 3.686,-1.423 z" />
			<path
   style="fill:#ffffff"
   inkscape:connector-curvature="0"
   id="path187"
   d="m 252.823,144.488 c 1.365,-0.723 3.057,-0.195 3.779,1.171 0.715,1.368 0.189,3.059 -1.172,3.777 -1.365,0.721 -3.057,0.195 -3.778,-1.17 -0.719,-1.364 -0.194,-3.056 1.171,-3.778 z" />
			<path
   style="opacity:0.9387;fill:#ffffff"
   inkscape:connector-curvature="0"
   id="path189"
   d="m 252.823,144.488 c 1.365,-0.723 3.057,-0.195 3.781,1.169 0.713,1.37 0.188,3.061 -1.174,3.779 -1.365,0.721 -3.057,0.195 -3.778,-1.17 -0.719,-1.364 -0.194,-3.056 1.171,-3.778 z" />
			<path
   style="fill:#ffffff"
   inkscape:connector-curvature="0"
   id="path191"
   d="m 270.387,156.264 c 1.413,0.623 2.046,2.277 1.422,3.686 -0.629,1.414 -2.274,2.045 -3.686,1.423 -1.417,-0.625 -2.048,-2.271 -1.426,-3.683 0.629,-1.413 2.279,-2.054 3.69,-1.426 z" />
			<path
   style="fill:#ffffff"
   inkscape:connector-curvature="0"
   id="path193"
   d="m 267.979,149.348 c 1.411,0.624 2.052,2.274 1.421,3.687 -0.622,1.411 -2.274,2.045 -3.685,1.422 -1.411,-0.628 -2.049,-2.283 -1.425,-3.691 0.625,-1.412 2.273,-2.046 3.689,-1.418 z" />
			<path
   style="fill:#ffffff"
   inkscape:connector-curvature="0"
   id="path195"
   d="m 256.719,138.374 c 1.364,-0.719 3.055,-0.2 3.777,1.171 0.715,1.362 0.198,3.057 -1.169,3.771 -1.369,0.722 -3.061,0.197 -3.781,-1.167 -0.714,-1.371 -0.196,-3.06 1.173,-3.775 z" />
			<path
   style="opacity:0.9387;fill:#ffffff"
   inkscape:connector-curvature="0"
   id="path197"
   d="m 256.719,138.374 c 1.368,-0.719 3.055,-0.2 3.777,1.171 0.715,1.362 0.198,3.057 -1.169,3.771 -1.369,0.722 -3.061,0.197 -3.781,-1.167 -0.714,-1.371 -0.196,-3.06 1.173,-3.775 z" />
			<path
   style="fill:#ffffff"
   inkscape:connector-curvature="0"
   id="path199"
   d="m 251.605,150.721 c 1.416,0.627 2.047,2.275 1.422,3.687 -0.628,1.412 -2.276,2.053 -3.689,1.425 -1.405,-0.625 -2.047,-2.275 -1.428,-3.686 0.631,-1.413 2.279,-2.046 3.695,-1.426 z" />
			<path
   style="opacity:0.9387;fill:#ffffff"
   inkscape:connector-curvature="0"
   id="path201"
   d="m 251.605,150.721 c 1.416,0.627 2.047,2.275 1.422,3.687 -0.628,1.412 -2.276,2.053 -3.689,1.425 -1.405,-0.625 -2.047,-2.275 -1.428,-3.686 0.631,-1.413 2.279,-2.046 3.695,-1.426 z" />
			<path
   style="fill:#ffffff"
   inkscape:connector-curvature="0"
   id="path203"
   d="m 255.272,156.59 c 1.411,0.622 2.045,2.273 1.423,3.684 -0.627,1.414 -2.278,2.054 -3.691,1.427 -1.405,-0.625 -2.049,-2.276 -1.424,-3.686 0.628,-1.413 2.277,-2.046 3.692,-1.425 z" />
			<path
   style="opacity:0.9387;fill:#ffffff"
   inkscape:connector-curvature="0"
   id="path205"
   d="m 255.272,156.59 c 1.411,0.622 2.045,2.273 1.423,3.684 -0.627,1.414 -2.278,2.054 -3.691,1.427 -1.405,-0.625 -2.049,-2.276 -1.424,-3.686 0.628,-1.413 2.277,-2.046 3.692,-1.425 z" />
			<path
   style="fill:#ffffff"
   inkscape:connector-curvature="0"
   id="path207"
   d="m 275.989,148.936 c 1.414,0.628 2.048,2.282 1.427,3.689 -0.626,1.415 -2.276,2.049 -3.69,1.428 -1.407,-0.633 -2.047,-2.273 -1.428,-3.691 0.632,-1.408 2.28,-2.049 3.691,-1.426 z" />
			<path
   style="fill:#ffffff"
   inkscape:connector-curvature="0"
   id="path209"
   d="m 270.158,142.396 c 1.366,-0.721 3.058,-0.197 3.772,1.171 0.72,1.366 0.194,3.058 -1.17,3.78 -1.36,0.715 -3.051,0.191 -3.771,-1.175 -0.726,-1.368 -0.198,-3.055 1.169,-3.776 z" />
			<path
   style="fill:#ffffff"
   inkscape:connector-curvature="0"
   id="path211"
   d="m 285.66,155.839 c 1.41,0.623 2.052,2.271 1.424,3.684 -0.625,1.411 -2.276,2.046 -3.685,1.424 -1.418,-0.63 -2.053,-2.272 -1.432,-3.683 0.632,-1.412 2.284,-2.057 3.693,-1.425 z" />
			<path
   style="opacity:0.9387;fill:#ffffff"
   inkscape:connector-curvature="0"
   id="path213"
   d="m 275.186,135.425 c 1.371,-0.726 3.064,-0.2 3.779,1.167 0.717,1.363 0.194,3.059 -1.176,3.774 -1.363,0.72 -3.055,0.197 -3.767,-1.168 -0.724,-1.369 -0.196,-3.054 1.164,-3.773 z" />
			<path
   style="fill:#ffffff"
   inkscape:connector-curvature="0"
   id="path215"
   d="m 279.025,141.568 c 1.372,-0.724 3.062,-0.196 3.778,1.169 0.717,1.358 0.194,3.052 -1.172,3.771 -1.365,0.722 -3.053,0.194 -3.773,-1.171 -0.719,-1.368 -0.19,-3.053 1.167,-3.769 z" />
			<path
   style="opacity:0.9387;fill:#ffffff"
   inkscape:connector-curvature="0"
   id="path217"
   d="m 270.158,129.977 c 1.368,-0.72 3.058,-0.201 3.781,1.17 0.714,1.368 0.192,3.052 -1.179,3.776 -1.358,0.717 -3.055,0.193 -3.773,-1.171 -0.718,-1.367 -0.191,-3.055 1.171,-3.775 z" />
			<path
   style="fill:#ffffff"
   inkscape:connector-curvature="0"
   id="path219"
   d="m 263.713,157.114 c -1.045,-1.138 -2.817,-1.215 -3.949,-0.173 -1.143,1.041 -1.22,2.812 -0.175,3.951 1.039,1.135 2.811,1.213 3.951,0.174 1.14,-1.047 1.214,-2.816 0.173,-3.952 z" />
			<path
   style="opacity:0.9387;fill:#ffffff"
   inkscape:connector-curvature="0"
   id="path221"
   d="m 252.823,144.488 c 1.365,-0.723 3.057,-0.195 3.781,1.169 0.713,1.37 0.188,3.061 -1.174,3.779 -1.365,0.721 -3.057,0.195 -3.778,-1.17 -0.719,-1.364 -0.194,-3.056 1.171,-3.778 z" />
			<path
   style="opacity:0.9387;fill:#ffffff"
   inkscape:connector-curvature="0"
   id="path223"
   d="m 256.719,138.374 c 1.368,-0.719 3.055,-0.2 3.777,1.171 0.715,1.362 0.198,3.057 -1.169,3.771 -1.369,0.722 -3.061,0.197 -3.781,-1.167 -0.714,-1.371 -0.196,-3.06 1.173,-3.775 z" />
			<path
   style="fill:#ffffff"
   inkscape:connector-curvature="0"
   id="path225"
   d="m 261.667,143.221 c 1.363,-0.719 3.056,-0.193 3.777,1.171 0.71,1.363 0.19,3.061 -1.18,3.774 -1.366,0.722 -3.049,0.2 -3.773,-1.172 -0.719,-1.364 -0.189,-3.051 1.176,-3.773 z" />
			<path
   style="opacity:0.9387;fill:#ffffff"
   inkscape:connector-curvature="0"
   id="path227"
   d="m 251.605,150.721 c 1.416,0.627 2.047,2.275 1.422,3.687 -0.628,1.412 -2.276,2.053 -3.689,1.425 -1.405,-0.625 -2.047,-2.275 -1.428,-3.686 0.631,-1.413 2.279,-2.046 3.695,-1.426 z" />
			<path
   style="opacity:0.9387;fill:#ffffff"
   inkscape:connector-curvature="0"
   id="path229"
   d="m 255.272,156.59 c 1.411,0.622 2.045,2.273 1.423,3.684 -0.627,1.414 -2.278,2.054 -3.691,1.427 -1.405,-0.625 -2.049,-2.276 -1.424,-3.686 0.628,-1.413 2.277,-2.046 3.692,-1.425 z" />
		</g>
	</g>

</svg>
